Simulation
nRows=40
nColumns=15
endheader
time  TH_x TH_y TH_z SC_y  SC_z  SC_x  AC_y  AC_z  AC_x  GH_y  GH_z  GH_yy  EL_x  PS_y
0.0  0.000000  0.000000  0.000000  -21.481837363305974  5.049547332879065  0.3347068766571287  50.74927176733634  6.352945944420836  -0.4754409335810368  158.1229382268953  2.523603538805735  -113.99865197466164  21.0356874926572  120.000000
0.05362  0.000000  0.000000  0.000000  -20.286391772113912  4.658354644626986  -1.1129193657034187  50.62226425743704  6.332089062322771  0.012918350430352069  6.3438084044413685  1.5774156343856354  35.656341543694154  20.328445786976403  120.000000
0.10724  0.000000  0.000000  0.000000  -19.184768689561878  4.237076722586253  -2.5716101851431454  50.45275535518869  6.200915472686424  0.5122667061965003  -6.865592194728574  5.418250704119862  46.62149384516725  19.622029687666625  120.000000
0.16086  0.000000  0.000000  0.000000  -18.21053089841472  3.8253279700946243  -4.0651424210404405  50.24588264502995  6.025472963634728  1.0409049981720795  -9.560876036823444  9.242547017272727  46.78971077335303  18.881674864109296  120.000000
0.21448  0.000000  0.000000  0.000000  -17.37130605826021  3.423130596641907  -5.5885374401947745  50.050982233693176  5.8582318801021245  1.6261005079484385  -11.194921134938822  13.044091689175502  45.47898738704156  18.102298642859406  120.000000
0.2681  0.000000  0.000000  0.000000  -16.6695087806871  3.012043894557358  -7.109634908521641  49.930671131432405  5.753889430074336  2.2836708246920514  -12.687076047053287  16.868424945222422  43.537502201039516  17.29120076477501  120.000000
0.32172  0.000000  0.000000  0.000000  -16.12299514054749  2.592157499392775  -8.597482651544253  49.92819969426035  5.775632743647874  3.021472524435538  -14.234658847233883  20.7566931506957  41.181789073832775  16.464874590511453  120.000000
0.37534  0.000000  0.000000  0.000000  -15.757546815225988  2.182871862314282  -10.02965905293525  50.04398752029993  5.980937959885203  3.831947582342199  -15.88830432705039  24.72075825263883  38.567841594876434  15.640672332608654  120.000000
0.42896  0.000000  0.000000  0.000000  -15.616631703320396  1.835913158189614  -11.391249265851334  50.23145186851602  6.406185549805172  4.684077670429292  -17.63627447859779  28.730549112280954  35.846222165612694  14.83385996118029  120.000000
0.48258  0.000000  0.000000  0.000000  -15.738386913434287  1.6144486194282115  -12.665464651660043  50.41543380103121  7.07102622327857  5.538880377255404  -19.432710960012606  32.71964290631228  33.16993251511329  14.055716581241096  120.000000
0.5362  0.000000  0.000000  0.000000  -16.151476976824597  1.57403648952193  -13.827664448607813  50.52629192983032  7.980592303645175  6.368840523560172  -21.178803408529646  36.60281735189213  30.647025938388786  13.31601197401657  120.000000
0.58982  0.000000  0.000000  0.000000  -16.87021301834886  1.749678609982376  -14.83676935685767  50.53024916939148  9.117924582999635  7.157320886708826  -22.7523278238449  40.298036327849196  28.346980844230732  12.624932151664938  120.000000
0.64344  0.000000  0.000000  0.000000  -17.899024010214788  2.1470151286266583  -15.639231539343704  50.43216904260672  10.440483384323436  7.9015558930187115  -24.035785257549946  43.74373757931212  26.30090779326903  11.991883116794982  120.000000
0.69706  0.000000  0.000000  0.000000  -19.226938973486348  2.7417929871719418  -16.17615904466189  50.275138811236374  11.885701969646023  8.602548941882661  -24.940393363064906  46.90431859853995  24.505704011272137  11.420885651097493  120.000000
0.75068  0.000000  0.000000  0.000000  -20.832504033856228  3.4878262827361426  -16.391050798360094  50.11826349403274  13.376290483760048  9.258397261461495  -25.420296551013646  49.76583026883956  22.924193808319284  10.903834838317247  120.000000
0.8043  0.000000  0.000000  0.000000  -22.680261599310892  4.330812397232317  -16.244031562141743  50.022418527549775  14.833874383979655  9.855052043275373  -25.474806000155116  52.3300044237971  21.49156622644535  10.417570171777955  120.000000
0.85792  0.000000  0.000000  0.000000  -24.713523488748823  5.217264363417624  -15.716264937525306  50.032443152102424  16.19188729084208  10.37561044223252  -25.13467520483316  54.613152819292296  20.124585416021937  9.932023754200936  120.000000
0.91154  0.000000  0.000000  0.000000  -26.849353042426845  6.101252620380725  -14.80544316629957  50.17010935775383  17.39250235767896  10.797373198543875  -24.458444440082513  56.641990782274895  18.746976699521287  9.423482080006837  120.000000
0.96516  0.000000  0.000000  0.000000  -28.985972339944215  6.950614997884889  -13.533969901542713  50.42477058253171  18.38759501819713  11.098335038574037  -23.529093990937785  58.445495963857674  17.313478432992156  8.887740120358357  120.000000
1.01878  0.000000  0.000000  0.000000  -31.017187660808407  7.747592945743003  -11.959393520407065  50.74943026873549  19.148215529557895  11.273088903871805  -22.44735625713578  60.051759320905916  15.824457335472099  8.343665790337887  120.000000
1.0724  0.000000  0.000000  0.000000  -32.85444736061188  8.489825788250512  -10.171751302014398  51.0772184313171  19.664620544095246  11.330987915255951  -21.317562733065607  61.48500028111218  14.32134886477436  7.825470101021035  120.000000
1.12602  0.000000  0.000000  0.000000  -34.44141690041085  9.178977966237893  -8.280709022372983  51.34279552226653  19.945666472750037  11.295936453943124  -20.2345291027484  62.76439783268454  12.874199560602703  7.370911493476849  120.000000
1.17964  0.000000  0.000000  0.000000  -35.760324895339025  9.818898237396942  -6.3965344980216505  51.50883527585452  20.013992453947395  11.192292426660554  -19.270973854500696  63.898944756430254  11.560421821929344  7.01110770989603  120.000000
1.23326  0.000000  0.000000  0.000000  -36.82584978088093  10.405786081746893  -4.613104180293795  51.57414392886461  19.897215578073656  11.037745508484697  -18.47174105529591  64.88852706093097  10.450441225329795  6.767147319613812  120.000000
1.28688  0.000000  0.000000  0.000000  -37.67383601146382  10.929520589649918  -2.9976843841911043  51.56919897673844  19.626287613112005  10.84019575959372  -17.855606986644244  65.72335362460456  9.595622271369056  6.649298213411801  120.000000
1.3405  0.000000  0.000000  0.000000  -38.34596922735885  11.381173060160915  -1.5884410110725193  51.537790533762205  19.234176476330994  10.600011422728512  -17.420598058220044  66.39808947191487  9.022320318069807  6.656045868784908  120.000000
1.39412  0.000000  0.000000  0.000000  -38.87583305976319  11.751000176711285  -0.39719000575186  51.51489237097405  18.7599647843153  10.322681758974543  -17.152729748791288  66.91804900319445  8.72538940040116  6.767997277474976  120.000000
1.44774  0.000000  0.000000  0.000000  -39.28129211185554  12.030891964847578  0.5830801831452599  51.51896104732957  18.248836814599773  10.0163157559581  -17.034965075743038  67.30019315687379  8.668625725803  6.942868040437253  120.000000
1.50136  0.000000  0.000000  0.000000  -39.56696291630445  12.212943388725163  1.3731908444606364  51.55363770930788  17.748337773299994  9.689655713432773  -17.050950868712103  67.57321682370706  8.79213068419139  7.121905189976435  120.000000
1.55498  0.000000  0.000000  0.000000  -39.72741501039916  12.28944215325735  1.9987032885109848  51.61449159067747  17.299610208759262  9.348796079563895  -17.184967032061973  67.77115734874039  9.027252053346892  7.246184562892377  120.000000
1.6086  0.000000  0.000000  0.000000  -39.751875253177644  12.254049662994579  2.478766317410686  51.69755081768631  16.926409928834676  8.993682080321307  -17.419846378395807  67.92609832909727  9.311455789212655  7.2776041902982165  120.000000
1.66222  0.000000  0.000000  0.000000  -39.624483976054385  12.103035053362053  2.818845083790338  51.802566247676886  16.629372118771958  8.62010790418218  -17.736445268317535  68.05670169825706  9.59831509320541  7.212036256737473  120.000000
1.71584  0.000000  0.000000  0.000000  -39.32466478615363  11.83630900323808  3.0086629584040083  51.93402629686453  16.38689012014044  8.22276659675079  -18.11488654131492  68.15799500098088  9.856834558103417  7.078300575922415  120.000000
1.76946  0.000000  0.000000  0.000000  -38.82762977106073  11.458329472101676  3.0243882482695144  52.100224583714194  16.161335931141423  7.799330865241989  -18.538046427909766  68.1923759925271  10.06368861281562  6.925311523437746  120.000000
1.82308  0.000000  0.000000  0.000000  -38.108830491374334  10.976781901020416  2.83532520154781  52.30904567396114  15.907251822857557  7.356769453442552  -18.993697038278114  68.08496391663347  10.194489166544155  6.811369003714465  120.000000
1.8767  0.000000  0.000000  0.000000  -37.15310924027386  10.403667652074649  2.4086597454303704  52.56566451304798  15.57890278414817  6.9136449016958625  -19.47389241691157  67.72777321766719  10.222040533241854  6.7981835819657945  120.000000
1.93032  0.000000  0.000000  0.000000  -35.96217132106862  9.75452433006129  1.719230313625364  52.86442701396098  15.139391577684485  6.505785964629337  -19.968456123704915  66.9966094772734  10.124113132366242  6.946169610997951  120.000000
1.98394  0.000000  0.000000  0.000000  -34.5565275272666  9.048968855267974  0.7497453147961912  53.18547925413176  14.57189454886252  6.179471318549467  -20.459657239811488  65.77058955407549  9.904388355619137  7.3025474695465675  120.000000
2.03756  0.000000  0.000000  0.000000  -32.96546333572233  8.305894045465541  -0.504755462525149  53.49067571833938  13.882425348994161  5.9812210582723075  -20.917598781797462  63.95038162524012  9.61851350736826  7.87881715254058  120.000000
2.09118  0.000000  0.000000  0.000000  -31.219634667499722  7.542032756814732  -2.030030351235783  53.72438881354272  13.102529153606548  5.944847906465332  -21.295817537265382  61.47643994518809  9.391995386896335  8.626977055893914  120.000000
